# xmcd
#
# Track frame offsets:
#	150
#	13352
#	32131
#	46363
#	62942
#	81071
#	103542
#	120716
#	134867
#	151833
#	168571
#	188533
#	205028
#	226121
#	249613
#	267673
#	284026
#	302805
#	325276
#
# Disc length: 4648 seconds
#
# Revision: 1
# Processed by: cddbd v1.5.2PL0 Copyright (c) Steve Scherf et al.
# Submitted via: audiograbber 1.83.01
#
DISCID=19122613
DTITLE=Various Artist - TT047
DYEAR=1900
DGENRE=Country
TTITLE0=Meredith Brooks - A Rose Is A Rose
TTITLE1=Lee Ann Womack - Ashes By Now
TTITLE2=Leann Rimes - But Do I Love You
TTITLE3=Leann Rimes - Can't Fight The Moonlight
TTITLE4=Lee Ann Womack - I Hope You Dance
TTITLE5=Lee Ann Womack - I Know Why The River Runs
TTITLE6=Leann Rimes - I Need You
TTITLE7=Dixie Chicks - If I Fall You're Going Down With Me
TTITLE8=Faith Hill - If My Heart Had Wings
TTITLE9=Terri Clark - No Fear
TTITLE10=Leann Rimes - One Of These Days
TTITLE11=Leann Rimes - Soon
TTITLE12=Faith Hill - That's How Love Moves
TTITLE13=Emmy Lou Harris - The Pearl
TTITLE14=Jamie O'Neil - There Is No Arizona
TTITLE15=Lee Ann Womack - Why They Call It Falling
TTITLE16=Lee Ann Womack - w/Vocal Ashes By Now
TTITLE17=Lee Ann Womack - w/Vocal I Know Why The River Runs
TTITLE18=Emmy Lou Harris - w/Vocal The Pearl
EXTD=
EXTT0=
EXTT1=
EXTT2=
EXTT3=
EXTT4=
EXTT5=
EXTT6=
EXTT7=
EXTT8=
EXTT9=
EXTT10=
EXTT11=
EXTT12=
EXTT13=
EXTT14=
EXTT15=
EXTT16=
EXTT17=
EXTT18=
PLAYORDER=
